<svg xmlns="http://www.w3.org/2000/svg" width="200" height="60" fill="none"><path fill="#790000" d="M50.617 24.084C50.197 10.933 39.54.32 26.345 0c-.34 0-.62.26-.62.6l-.02 8.834c0 .44-.34.78-.78.8C11.77 10.632 1.153 21.305.833 34.496c0 .34.26.62.6.62l8.817.02c.44 0 .78.34.8.78C11.47 49.066 22.146 59.68 35.322 60c.34 0 .62-.26.62-.6l.02-8.834c0-.44.34-.78.78-.8 13.155-.419 23.771-11.092 24.091-24.263 0-.34-.26-.62-.6-.62l-8.816-.02c-.44 0-.78-.34-.8-.78ZM35.082 49.707c-7.478-.44-13.476-6.516-13.756-14.03a.611.611 0 0 0-.6-.58l-8.796-.02c-.46 0-.82-.38-.8-.84.44-7.475 6.518-13.47 14.035-13.75.32-.02.58-.28.58-.6l.02-8.814c0-.46.38-.82.84-.8 7.477.44 13.475 6.516 13.755 14.03.02.32.28.58.6.58l8.797.02c.46 0 .82.38.8.84-.44 7.675-6.818 13.77-14.595 13.77l-.02 9.394c-.02.46-.4.82-.86.8Z"/><path fill="#fff" fill-rule="evenodd" d="M25.464 24.683a1.59 1.59 0 0 1 2.356-1.393l9.786 5.382c1.099.604 1.099 2.182 0 2.787L27.82 36.84a1.59 1.59 0 0 1-2.356-1.393V24.683Z" clip-rule="evenodd"/><path fill="#fff" d="M63.833 26.905c0-.758.143-1.47.43-2.135a5.597 5.597 0 0 1 1.161-1.74 5.567 5.567 0 0 1 1.73-1.189 5.163 5.163 0 0 1 2.109-.434h8.308v3.67h-8.308a1.776 1.776 0 0 0-1.288.537 1.838 1.838 0 0 0-.518 1.292c0 .255.046.498.139.728.093.222.219.418.379.588.168.162.362.29.58.384.22.094.455.14.708.14h3.623c.75 0 1.453.146 2.11.436a5.213 5.213 0 0 1 1.729 1.176 5.287 5.287 0 0 1 1.162 1.752c.286.665.429 1.377.429 2.136 0 .758-.143 1.47-.43 2.135a5.47 5.47 0 0 1-1.161 1.752 5.482 5.482 0 0 1-1.73 1.176c-.656.29-1.36.435-2.109.435h-8.043v-3.67h8.043a1.776 1.776 0 0 0 1.276-.524 1.838 1.838 0 0 0 .53-1.304 1.84 1.84 0 0 0-.139-.717 1.697 1.697 0 0 0-.391-.575c-.16-.17-.35-.303-.568-.397a1.778 1.778 0 0 0-.707-.14h-3.624c-.75 0-1.452-.145-2.109-.435a5.677 5.677 0 0 1-1.73-1.176 5.758 5.758 0 0 1-1.161-1.752 5.436 5.436 0 0 1-.43-2.149ZM86.89 39.744a5.873 5.873 0 0 1-2.35-.473 6.344 6.344 0 0 1-1.931-1.317 6.435 6.435 0 0 1-1.3-1.957 6.079 6.079 0 0 1-.468-2.378v-4.067h-1.68v-3.478h1.68v-5.473h3.435v5.473h5.227v3.478h-5.227v4.067c0 .367.067.712.202 1.036.134.315.32.592.555.83.236.24.514.431.834.576.32.137.66.205 1.022.205h2.614v3.478h-2.614ZM94.894 39.744h-3.447V26.05h.834l1.136 1.624a5.914 5.914 0 0 1 1.894-1.177 5.89 5.89 0 0 1 2.197-.422h3.043v3.478h-3.043a2.58 2.58 0 0 0-1.023.205 2.58 2.58 0 0 0-1.388 1.407 2.67 2.67 0 0 0-.203 1.035v7.545ZM107.281 36.394c.135.043.269.072.404.09.135.008.27.012.404.012.337 0 .661-.047.972-.14a3.317 3.317 0 0 0 1.604-1.036c.219-.256.396-.537.53-.844l2.526 2.57c-.32.46-.691.874-1.112 1.24a6.683 6.683 0 0 1-1.351.934 6.344 6.344 0 0 1-1.527.575 6.571 6.571 0 0 1-1.642.205 6.798 6.798 0 0 1-2.689-.537 6.856 6.856 0 0 1-2.197-1.496 7.101 7.101 0 0 1-1.478-2.276c-.362-.887-.543-1.859-.543-2.916 0-1.083.181-2.072.543-2.967a6.888 6.888 0 0 1 1.478-2.289 6.784 6.784 0 0 1 2.197-1.47 6.943 6.943 0 0 1 2.689-.525 6.767 6.767 0 0 1 3.182.793 6.77 6.77 0 0 1 1.364.946c.421.367.791.78 1.111 1.24l-6.465 7.89Zm1.768-7.2c-.16-.06-.32-.098-.48-.115a4.284 4.284 0 0 0-.48-.025c-.471 0-.917.09-1.338.268-.413.17-.775.418-1.086.742a3.581 3.581 0 0 0-.72 1.176 4.18 4.18 0 0 0-.265 1.535c0 .128.004.273.013.435.016.162.038.328.063.498.033.162.071.32.113.474.043.153.097.29.165.409l4.015-5.397ZM128.481 39.744h-.833l-1.339-1.88c-.328.299-.677.58-1.048.844a8.166 8.166 0 0 1-1.149.678 7.31 7.31 0 0 1-1.25.448c-.421.11-.85.166-1.288.166a7.423 7.423 0 0 1-2.689-.486 6.483 6.483 0 0 1-2.197-1.407c-.623-.622-1.116-1.38-1.477-2.276-.362-.895-.543-1.914-.543-3.056 0-1.066.181-2.042.543-2.928a7.016 7.016 0 0 1 1.477-2.302 6.686 6.686 0 0 1 2.197-1.484 6.798 6.798 0 0 1 2.689-.537c.438 0 .872.056 1.301.166.429.111.846.265 1.25.46.404.197.787.427 1.149.691.37.265.715.55 1.035.857l1.339-1.624h.833v13.67Zm-3.472-6.97c0-.477-.093-.937-.278-1.38a3.806 3.806 0 0 0-.732-1.19 3.525 3.525 0 0 0-1.099-.83 2.845 2.845 0 0 0-1.326-.32c-.471 0-.917.08-1.338.243-.413.162-.775.4-1.086.716a3.412 3.412 0 0 0-.72 1.176c-.176.46-.265.99-.265 1.586 0 .597.089 1.13.265 1.598.177.46.417.849.72 1.164.311.316.673.554 1.086.716.421.162.867.243 1.338.243a2.94 2.94 0 0 0 1.326-.307c.421-.213.787-.49 1.099-.83.311-.35.555-.747.732-1.19.185-.452.278-.917.278-1.394ZM148.317 39.744h-3.434V31.05c0-.24-.046-.465-.139-.678a1.657 1.657 0 0 0-.922-.934 1.623 1.623 0 0 0-.669-.14c-.236 0-.459.047-.669.14a1.672 1.672 0 0 0-.543.371c-.152.162-.274.35-.366.563-.085.213-.127.439-.127.678v8.695h-3.447V31.05c0-.24-.046-.465-.139-.678a1.657 1.657 0 0 0-.921-.934 1.63 1.63 0 0 0-.669-.14c-.236 0-.459.047-.67.14a1.672 1.672 0 0 0-.543.371c-.151.162-.273.35-.366.563-.084.213-.126.439-.126.678v8.695h-3.447V26.05h.833l.935 1.048a5.446 5.446 0 0 1 1.578-.946 4.86 4.86 0 0 1 1.806-.345c.631 0 1.245.119 1.843.358.606.238 1.136.652 1.591 1.24.21-.29.45-.537.72-.742a4.07 4.07 0 0 1 .846-.498 4.03 4.03 0 0 1 .934-.269c.32-.06.636-.09.947-.09.715 0 1.385.137 2.008.41a5.052 5.052 0 0 1 1.641 1.125 5.12 5.12 0 0 1 1.111 1.663c.27.639.404 1.321.404 2.046v8.695ZM165.047 21.407 159.1 39.744h-3.624l-5.921-18.337h4.116l3.611 12.238 3.624-12.238h4.141ZM170.489 22.327c0 .324-.063.627-.189.908a2.33 2.33 0 0 1-.492.742 2.56 2.56 0 0 1-.745.499c-.278.12-.577.179-.897.179-.32 0-.623-.06-.909-.18a2.59 2.59 0 0 1-.732-.498 2.635 2.635 0 0 1-.493-.742 2.323 2.323 0 0 1-.177-.908c0-.315.059-.613.177-.895.126-.29.291-.537.493-.741.21-.214.454-.38.732-.5.286-.127.589-.191.909-.191.32 0 .619.064.897.192.286.12.534.285.745.498.21.205.374.452.492.742.126.282.189.58.189.895Zm-.593 17.417h-3.472V26.05h3.472v13.695ZM186.07 32.775c0 1.074-.181 2.055-.543 2.941a7.049 7.049 0 0 1-1.477 2.29 6.617 6.617 0 0 1-2.197 1.47c-.833.35-1.73.524-2.689.524a6.802 6.802 0 0 1-2.69-.537 6.878 6.878 0 0 1-2.197-1.496 7.099 7.099 0 0 1-1.477-2.276c-.362-.887-.543-1.859-.543-2.916V20.6h3.46v6.394c.185-.239.408-.452.669-.64.269-.187.555-.34.859-.46.311-.12.631-.209.959-.268a4.71 4.71 0 0 1 .96-.103c.959 0 1.856.184 2.689.55a6.592 6.592 0 0 1 2.197 1.51 7.2 7.2 0 0 1 1.477 2.3c.362.879.543 1.842.543 2.89Zm-3.472 0c0-.529-.092-1.019-.278-1.47a3.605 3.605 0 0 0-.732-1.19 3.37 3.37 0 0 0-1.098-.78 3.17 3.17 0 0 0-1.326-.281c-.472 0-.918.106-1.339.32a3.578 3.578 0 0 0-1.086.83 3.806 3.806 0 0 0-.732 1.19 3.69 3.69 0 0 0-.265 1.38c0 .53.088 1.02.265 1.471.177.452.421.845.732 1.177.312.333.674.597 1.086.793.421.187.867.281 1.339.281.471 0 .913-.094 1.326-.281a3.537 3.537 0 0 0 1.83-1.97c.186-.451.278-.941.278-1.47ZM193.369 36.394c.134.043.269.072.404.09.134.008.269.012.404.012.336 0 .66-.047.972-.14.311-.094.602-.226.871-.397a3.39 3.39 0 0 0 1.263-1.483l2.525 2.57c-.32.46-.69.874-1.111 1.24a6.74 6.74 0 0 1-2.879 1.51 6.558 6.558 0 0 1-1.641.204 6.799 6.799 0 0 1-2.69-.537 6.878 6.878 0 0 1-2.197-1.496 7.099 7.099 0 0 1-1.477-2.276c-.362-.887-.543-1.859-.543-2.916 0-1.083.181-2.072.543-2.967.362-.895.854-1.658 1.477-2.289a6.805 6.805 0 0 1 4.887-1.995 6.785 6.785 0 0 1 3.182.793c.488.256.942.571 1.363.946.421.367.791.78 1.111 1.24l-6.464 7.89Zm1.767-7.2c-.16-.06-.32-.098-.48-.115a4.266 4.266 0 0 0-.479-.025c-.472 0-.918.09-1.339.268-.412.17-.774.418-1.086.742a3.563 3.563 0 0 0-.719 1.176 4.18 4.18 0 0 0-.266 1.535c0 .128.005.273.013.435.017.162.038.328.063.498.034.162.072.32.114.474.042.153.097.29.164.409l4.015-5.397Z"/></svg>